<svg xmlns="http://www.w3.org/2000/svg" xmlns:xlink="http://www.w3.org/1999/xlink" contentStyleType="text/css" data-diagram-type="CLASS" height="1029px" preserveAspectRatio="none" style="width:687px;height:1029px;background:#FFFFFF;" version="1.1" viewBox="0 0 687 1029" width="687px" zoomAndPan="magnify"><defs/><g><!--class Student--><g id="elem_Student"><rect codeLine="1" fill="#F1F1F1" height="129.4844" id="Student" rx="2.5" ry="2.5" style="stroke:#181818;stroke-width:0.5;" width="148.6504" x="348.57" y="7"/><ellipse cx="391.2626" cy="23" fill="#ADD1B2" rx="11" ry="11" style="stroke:#181818;stroke-width:1;"/><path d="M394.2313,28.6406 Q393.6532,28.9375 393.0126,29.0781 Q392.372,29.2344 391.6688,29.2344 Q389.1688,29.2344 387.8407,27.5938 Q386.5282,25.9375 386.5282,22.8125 Q386.5282,19.6875 387.8407,18.0313 Q389.1688,16.375 391.6688,16.375 Q392.372,16.375 393.0126,16.5313 Q393.6688,16.6875 394.2313,16.9844 L394.2313,19.7031 Q393.6063,19.125 393.0126,18.8594 Q392.4188,18.5781 391.7938,18.5781 Q390.4501,18.5781 389.7626,19.6563 Q389.0751,20.7188 389.0751,22.8125 Q389.0751,24.9063 389.7626,25.9844 Q390.4501,27.0469 391.7938,27.0469 Q392.4188,27.0469 393.0126,26.7813 Q393.6063,26.5 394.2313,25.9219 L394.2313,28.6406 Z " fill="#000000"/><text fill="#000000" font-family="sans-serif" font-size="14" lengthAdjust="spacing" textLength="55.1113" x="411.4165" y="27.8467">Student</text><line style="stroke:#181818;stroke-width:0.5;" x1="349.57" x2="496.2204" y1="39" y2="39"/><ellipse cx="359.57" cy="52.6484" fill="#FFFFFF" fill-opacity="0.00000" rx="3" ry="3" style="stroke:#038048;stroke-width:1;"/><text fill="#000000" font-family="sans-serif" font-size="14" lengthAdjust="spacing" textLength="122.6504" x="368.57" y="55.9951">student_id: string</text><ellipse cx="359.57" cy="68.9453" fill="#FFFFFF" fill-opacity="0.00000" rx="3" ry="3" style="stroke:#038048;stroke-width:1;"/><text fill="#000000" font-family="sans-serif" font-size="14" lengthAdjust="spacing" textLength="89.0586" x="368.57" y="72.292">name: string</text><ellipse cx="359.57" cy="85.2422" fill="#FFFFFF" fill-opacity="0.00000" rx="3" ry="3" style="stroke:#038048;stroke-width:1;"/><text fill="#000000" font-family="sans-serif" font-size="14" lengthAdjust="spacing" textLength="87.9648" x="368.57" y="88.5889">email: string</text><ellipse cx="359.57" cy="101.5391" fill="#FFFFFF" fill-opacity="0.00000" rx="3" ry="3" style="stroke:#038048;stroke-width:1;"/><text fill="#000000" font-family="sans-serif" font-size="14" lengthAdjust="spacing" textLength="73.6299" x="368.57" y="104.8857">birth: date</text><ellipse cx="359.57" cy="117.8359" fill="#FFFFFF" fill-opacity="0.00000" rx="3" ry="3" style="stroke:#038048;stroke-width:1;"/><text fill="#000000" font-family="sans-serif" font-size="14" lengthAdjust="spacing" textLength="107.6934" x="368.57" y="121.1826">active: boolean</text><line style="stroke:#181818;stroke-width:0.5;" x1="349.57" x2="496.2204" y1="128.4844" y2="128.4844"/></g><!--class Professor--><g id="elem_Professor"><rect codeLine="9" fill="#F1F1F1" height="96.8906" id="Professor" rx="2.5" ry="2.5" style="stroke:#181818;stroke-width:0.5;" width="160.791" x="108.5" y="403.67"/><ellipse cx="152.1093" cy="419.67" fill="#ADD1B2" rx="11" ry="11" style="stroke:#181818;stroke-width:1;"/><path d="M155.078,425.3106 Q154.4999,425.6075 153.8593,425.7481 Q153.2187,425.9044 152.5155,425.9044 Q150.0155,425.9044 148.6874,424.2638 Q147.3749,422.6075 147.3749,419.4825 Q147.3749,416.3575 148.6874,414.7013 Q150.0155,413.045 152.5155,413.045 Q153.2187,413.045 153.8593,413.2013 Q154.5155,413.3575 155.078,413.6544 L155.078,416.3731 Q154.453,415.795 153.8593,415.5294 Q153.2655,415.2481 152.6405,415.2481 Q151.2968,415.2481 150.6093,416.3263 Q149.9218,417.3888 149.9218,419.4825 Q149.9218,421.5763 150.6093,422.6544 Q151.2968,423.7169 152.6405,423.7169 Q153.2655,423.7169 153.8593,423.4513 Q154.453,423.17 155.078,422.5919 L155.078,425.3106 Z " fill="#000000"/><text fill="#000000" font-family="sans-serif" font-size="14" lengthAdjust="spacing" textLength="65.2148" x="172.4669" y="424.5167">Professor</text><line style="stroke:#181818;stroke-width:0.5;" x1="109.5" x2="268.291" y1="435.67" y2="435.67"/><ellipse cx="119.5" cy="449.3184" fill="#FFFFFF" fill-opacity="0.00000" rx="3" ry="3" style="stroke:#038048;stroke-width:1;"/><text fill="#000000" font-family="sans-serif" font-size="14" lengthAdjust="spacing" textLength="134.791" x="128.5" y="452.6651">professor_id: string</text><ellipse cx="119.5" cy="465.6153" fill="#FFFFFF" fill-opacity="0.00000" rx="3" ry="3" style="stroke:#038048;stroke-width:1;"/><text fill="#000000" font-family="sans-serif" font-size="14" lengthAdjust="spacing" textLength="89.0586" x="128.5" y="468.962">name: string</text><ellipse cx="119.5" cy="481.9122" fill="#FFFFFF" fill-opacity="0.00000" rx="3" ry="3" style="stroke:#038048;stroke-width:1;"/><text fill="#000000" font-family="sans-serif" font-size="14" lengthAdjust="spacing" textLength="87.9648" x="128.5" y="485.2589">email: string</text><line style="stroke:#181818;stroke-width:0.5;" x1="109.5" x2="268.291" y1="492.5606" y2="492.5606"/></g><!--class Module--><g id="elem_Module"><rect codeLine="15" fill="#F1F1F1" height="80.5938" id="Module" rx="2.5" ry="2.5" style="stroke:#181818;stroke-width:0.5;" width="147.5977" x="115.1" y="577.56"/><ellipse cx="159.2107" cy="593.56" fill="#ADD1B2" rx="11" ry="11" style="stroke:#181818;stroke-width:1;"/><path d="M162.1794,599.2006 Q161.6013,599.4975 160.9607,599.6381 Q160.3201,599.7944 159.6169,599.7944 Q157.1169,599.7944 155.7888,598.1538 Q154.4763,596.4975 154.4763,593.3725 Q154.4763,590.2475 155.7888,588.5913 Q157.1169,586.935 159.6169,586.935 Q160.3201,586.935 160.9607,587.0913 Q161.6169,587.2475 162.1794,587.5444 L162.1794,590.2631 Q161.5544,589.685 160.9607,589.4194 Q160.3669,589.1381 159.7419,589.1381 Q158.3982,589.1381 157.7107,590.2163 Q157.0232,591.2788 157.0232,593.3725 Q157.0232,595.4663 157.7107,596.5444 Q158.3982,597.6069 159.7419,597.6069 Q160.3669,597.6069 160.9607,597.3413 Q161.5544,597.06 162.1794,596.4819 L162.1794,599.2006 Z " fill="#000000"/><text fill="#000000" font-family="sans-serif" font-size="14" lengthAdjust="spacing" textLength="50.9072" x="179.6797" y="598.4067">Module</text><line style="stroke:#181818;stroke-width:0.5;" x1="116.1" x2="261.6977" y1="609.56" y2="609.56"/><ellipse cx="126.1" cy="623.2084" fill="#FFFFFF" fill-opacity="0.00000" rx="3" ry="3" style="stroke:#038048;stroke-width:1;"/><text fill="#000000" font-family="sans-serif" font-size="14" lengthAdjust="spacing" textLength="121.5977" x="135.1" y="626.5551">module_id: string</text><ellipse cx="126.1" cy="639.5053" fill="#FFFFFF" fill-opacity="0.00000" rx="3" ry="3" style="stroke:#038048;stroke-width:1;"/><text fill="#000000" font-family="sans-serif" font-size="14" lengthAdjust="spacing" textLength="89.0586" x="135.1" y="642.852">name: string</text><line style="stroke:#181818;stroke-width:0.5;" x1="116.1" x2="261.6977" y1="650.1538" y2="650.1538"/></g><!--class Session--><g id="elem_Session"><rect codeLine="20" fill="#F1F1F1" height="113.1875" id="Session" rx="2.5" ry="2.5" style="stroke:#181818;stroke-width:0.5;" width="146.9551" x="281.42" y="213.48"/><ellipse cx="324.1126" cy="229.48" fill="#ADD1B2" rx="11" ry="11" style="stroke:#181818;stroke-width:1;"/><path d="M327.0813,235.1206 Q326.5032,235.4175 325.8626,235.5581 Q325.222,235.7144 324.5188,235.7144 Q322.0188,235.7144 320.6907,234.0738 Q319.3782,232.4175 319.3782,229.2925 Q319.3782,226.1675 320.6907,224.5113 Q322.0188,222.855 324.5188,222.855 Q325.222,222.855 325.8626,223.0113 Q326.5188,223.1675 327.0813,223.4644 L327.0813,226.1831 Q326.4563,225.605 325.8626,225.3394 Q325.2688,225.0581 324.6438,225.0581 Q323.3001,225.0581 322.6126,226.1363 Q321.9251,227.1988 321.9251,229.2925 Q321.9251,231.3863 322.6126,232.4644 Q323.3001,233.5269 324.6438,233.5269 Q325.2688,233.5269 325.8626,233.2613 Q326.4563,232.98 327.0813,232.4019 L327.0813,235.1206 Z " fill="#000000"/><text fill="#000000" font-family="sans-serif" font-size="14" lengthAdjust="spacing" textLength="53.416" x="344.2665" y="234.3267">Session</text><line style="stroke:#181818;stroke-width:0.5;" x1="282.42" x2="427.3751" y1="245.48" y2="245.48"/><ellipse cx="292.42" cy="259.1284" fill="#FFFFFF" fill-opacity="0.00000" rx="3" ry="3" style="stroke:#038048;stroke-width:1;"/><text fill="#000000" font-family="sans-serif" font-size="14" lengthAdjust="spacing" textLength="120.9551" x="301.42" y="262.4751">session_id: string</text><ellipse cx="292.42" cy="275.4253" fill="#FFFFFF" fill-opacity="0.00000" rx="3" ry="3" style="stroke:#038048;stroke-width:1;"/><text fill="#000000" font-family="sans-serif" font-size="14" lengthAdjust="spacing" textLength="72.3037" x="301.42" y="278.772">date: date</text><ellipse cx="292.42" cy="291.7222" fill="#FFFFFF" fill-opacity="0.00000" rx="3" ry="3" style="stroke:#038048;stroke-width:1;"/><text fill="#000000" font-family="sans-serif" font-size="14" lengthAdjust="spacing" textLength="72.4268" x="301.42" y="295.0689">time: time</text><ellipse cx="292.42" cy="308.0191" fill="#FFFFFF" fill-opacity="0.00000" rx="3" ry="3" style="stroke:#038048;stroke-width:1;"/><text fill="#000000" font-family="sans-serif" font-size="14" lengthAdjust="spacing" textLength="105.6563" x="301.42" y="311.3657">room_id: string</text><line style="stroke:#181818;stroke-width:0.5;" x1="282.42" x2="427.3751" y1="318.6675" y2="318.6675"/></g><!--class Exam--><g id="elem_Exam"><rect codeLine="27" fill="#F1F1F1" height="96.8906" id="Exam" rx="2.5" ry="2.5" style="stroke:#181818;stroke-width:0.5;" width="147.5977" x="419.1" y="735.15"/><ellipse cx="468.975" cy="751.15" fill="#ADD1B2" rx="11" ry="11" style="stroke:#181818;stroke-width:1;"/><path d="M471.9438,756.7906 Q471.3656,757.0875 470.725,757.2281 Q470.0844,757.3844 469.3813,757.3844 Q466.8813,757.3844 465.5531,755.7438 Q464.2406,754.0875 464.2406,750.9625 Q464.2406,747.8375 465.5531,746.1813 Q466.8813,744.525 469.3813,744.525 Q470.0844,744.525 470.725,744.6813 Q471.3813,744.8375 471.9438,745.1344 L471.9438,747.8531 Q471.3188,747.275 470.725,747.0094 Q470.1313,746.7281 469.5063,746.7281 Q468.1625,746.7281 467.475,747.8063 Q466.7875,748.8688 466.7875,750.9625 Q466.7875,753.0563 467.475,754.1344 Q468.1625,755.1969 469.5063,755.1969 Q470.1313,755.1969 470.725,754.9313 Q471.3188,754.65 471.9438,754.0719 L471.9438,756.7906 Z " fill="#000000"/><text fill="#000000" font-family="sans-serif" font-size="14" lengthAdjust="spacing" textLength="39.3477" x="489.475" y="755.9967">Exam</text><line style="stroke:#181818;stroke-width:0.5;" x1="420.1" x2="565.6977" y1="767.15" y2="767.15"/><ellipse cx="430.1" cy="780.7984" fill="#FFFFFF" fill-opacity="0.00000" rx="3" ry="3" style="stroke:#038048;stroke-width:1;"/><text fill="#000000" font-family="sans-serif" font-size="14" lengthAdjust="spacing" textLength="108.2471" x="439.1" y="784.1451">exam_id: string</text><ellipse cx="430.1" cy="797.0953" fill="#FFFFFF" fill-opacity="0.00000" rx="3" ry="3" style="stroke:#038048;stroke-width:1;"/><text fill="#000000" font-family="sans-serif" font-size="14" lengthAdjust="spacing" textLength="72.3037" x="439.1" y="800.442">date: date</text><ellipse cx="430.1" cy="813.3922" fill="#FFFFFF" fill-opacity="0.00000" rx="3" ry="3" style="stroke:#038048;stroke-width:1;"/><text fill="#000000" font-family="sans-serif" font-size="14" lengthAdjust="spacing" textLength="121.5977" x="439.1" y="816.7389">module_id: string</text><line style="stroke:#181818;stroke-width:0.5;" x1="420.1" x2="565.6977" y1="824.0406" y2="824.0406"/></g><!--class Grade--><g id="elem_Grade"><rect codeLine="33" fill="#F1F1F1" height="113.1875" id="Grade" rx="2.5" ry="2.5" style="stroke:#181818;stroke-width:0.5;" width="148.6504" x="482.57" y="909.04"/><ellipse cx="531.3034" cy="925.04" fill="#ADD1B2" rx="11" ry="11" style="stroke:#181818;stroke-width:1;"/><path d="M534.2721,930.6806 Q533.694,930.9775 533.0534,931.1181 Q532.4128,931.2744 531.7096,931.2744 Q529.2096,931.2744 527.8815,929.6338 Q526.569,927.9775 526.569,924.8525 Q526.569,921.7275 527.8815,920.0713 Q529.2096,918.415 531.7096,918.415 Q532.4128,918.415 533.0534,918.5713 Q533.7096,918.7275 534.2721,919.0244 L534.2721,921.7431 Q533.6471,921.165 533.0534,920.8994 Q532.4596,920.6181 531.8346,920.6181 Q530.4909,920.6181 529.8034,921.6963 Q529.1159,922.7588 529.1159,924.8525 Q529.1159,926.9463 529.8034,928.0244 Q530.4909,929.0869 531.8346,929.0869 Q532.4596,929.0869 533.0534,928.8213 Q533.6471,928.54 534.2721,927.9619 L534.2721,930.6806 Z " fill="#000000"/><text fill="#000000" font-family="sans-serif" font-size="14" lengthAdjust="spacing" textLength="42.6836" x="551.8034" y="929.8867">Grade</text><line style="stroke:#181818;stroke-width:0.5;" x1="483.57" x2="630.2204" y1="941.04" y2="941.04"/><ellipse cx="493.57" cy="954.6884" fill="#FFFFFF" fill-opacity="0.00000" rx="3" ry="3" style="stroke:#038048;stroke-width:1;"/><text fill="#000000" font-family="sans-serif" font-size="14" lengthAdjust="spacing" textLength="109.8535" x="502.57" y="958.0351">grade_id: string</text><ellipse cx="493.57" cy="970.9853" fill="#FFFFFF" fill-opacity="0.00000" rx="3" ry="3" style="stroke:#038048;stroke-width:1;"/><text fill="#000000" font-family="sans-serif" font-size="14" lengthAdjust="spacing" textLength="122.6504" x="502.57" y="974.332">student_id: string</text><ellipse cx="493.57" cy="987.2822" fill="#FFFFFF" fill-opacity="0.00000" rx="3" ry="3" style="stroke:#038048;stroke-width:1;"/><text fill="#000000" font-family="sans-serif" font-size="14" lengthAdjust="spacing" textLength="108.2471" x="502.57" y="990.6289">exam_id: string</text><ellipse cx="493.57" cy="1003.5791" fill="#FFFFFF" fill-opacity="0.00000" rx="3" ry="3" style="stroke:#038048;stroke-width:1;"/><text fill="#000000" font-family="sans-serif" font-size="14" lengthAdjust="spacing" textLength="78.5449" x="502.57" y="1006.9257">score: float</text><line style="stroke:#181818;stroke-width:0.5;" x1="483.57" x2="630.2204" y1="1014.2275" y2="1014.2275"/></g><!--class Room--><g id="elem_Room"><rect codeLine="40" fill="#F1F1F1" height="80.5938" id="Room" rx="2.5" ry="2.5" style="stroke:#181818;stroke-width:0.5;" width="131.6563" x="319.07" y="411.82"/><ellipse cx="360.6921" cy="427.82" fill="#ADD1B2" rx="11" ry="11" style="stroke:#181818;stroke-width:1;"/><path d="M363.6608,433.4606 Q363.0827,433.7575 362.4421,433.8981 Q361.8014,434.0544 361.0983,434.0544 Q358.5983,434.0544 357.2702,432.4138 Q355.9577,430.7575 355.9577,427.6325 Q355.9577,424.5075 357.2702,422.8513 Q358.5983,421.195 361.0983,421.195 Q361.8014,421.195 362.4421,421.3513 Q363.0983,421.5075 363.6608,421.8044 L363.6608,424.5231 Q363.0358,423.945 362.4421,423.6794 Q361.8483,423.3981 361.2233,423.3981 Q359.8796,423.3981 359.1921,424.4763 Q358.5046,425.5388 358.5046,427.6325 Q358.5046,429.7263 359.1921,430.8044 Q359.8796,431.8669 361.2233,431.8669 Q361.8483,431.8669 362.4421,431.6013 Q363.0358,431.32 363.6608,430.7419 L363.6608,433.4606 Z " fill="#000000"/><text fill="#000000" font-family="sans-serif" font-size="14" lengthAdjust="spacing" textLength="40.4961" x="380.6081" y="432.6667">Room</text><line style="stroke:#181818;stroke-width:0.5;" x1="320.07" x2="449.7263" y1="443.82" y2="443.82"/><ellipse cx="330.07" cy="457.4684" fill="#FFFFFF" fill-opacity="0.00000" rx="3" ry="3" style="stroke:#038048;stroke-width:1;"/><text fill="#000000" font-family="sans-serif" font-size="14" lengthAdjust="spacing" textLength="105.6563" x="339.07" y="460.8151">room_id: string</text><ellipse cx="330.07" cy="473.7653" fill="#FFFFFF" fill-opacity="0.00000" rx="3" ry="3" style="stroke:#038048;stroke-width:1;"/><text fill="#000000" font-family="sans-serif" font-size="14" lengthAdjust="spacing" textLength="89.0586" x="339.07" y="477.112">name: string</text><line style="stroke:#181818;stroke-width:0.5;" x1="320.07" x2="449.7263" y1="484.4138" y2="484.4138"/></g><!--link Student to Module--><g id="link_Student_Module"><path codeLine="45" d="M348.18,108.81 C264.78,153.74 134.27,239.16 78.9,356.67 C65.34,385.42 6,298.22 90.9,500.56 C103,529.41 124.9,556.47 144.93,577.21 " fill="#FFFFFF" fill-opacity="0.00000" id="Student-Module" style="stroke:#181818;stroke-width:1;"/><text fill="#000000" font-family="sans-serif" font-size="13" lengthAdjust="spacing" textLength="69.2085" x="79.9" y="369.7369">Enrolled in</text><text fill="#000000" font-family="sans-serif" font-size="13" lengthAdjust="spacing" textLength="23.0356" x="317.503" y="108.5162">1..*</text><text fill="#000000" font-family="sans-serif" font-size="13" lengthAdjust="spacing" textLength="23.0356" x="113.0925" y="566.6141">0..*</text></g><!--link Student to Session--><g id="link_Student_Session"><path codeLine="46" d="M348.26,133.61 C340,143.69 332.81,154.72 327.9,166.48 C321.75,181.18 322.84,197.66 326.98,213.03 " fill="#FFFFFF" fill-opacity="0.00000" id="Student-Session" style="stroke:#181818;stroke-width:1;"/><text fill="#000000" font-family="sans-serif" font-size="13" lengthAdjust="spacing" textLength="50.3496" x="328.9" y="179.5469">Attends</text><text fill="#000000" font-family="sans-serif" font-size="13" lengthAdjust="spacing" textLength="23.0356" x="317.5902" y="135.5249">1..*</text><text fill="#000000" font-family="sans-serif" font-size="13" lengthAdjust="spacing" textLength="23.0356" x="299.1782" y="202.2387">0..*</text></g><!--link Session to Student--><g id="link_Session_Student"><path codeLine="57" d="M374.29,213.07 C382.54,189.27 392.2,161.37 400.73,136.75 " fill="#FFFFFF" fill-opacity="0.00000" id="Session-Student" style="stroke:#181818;stroke-width:1;"/><text fill="#000000" font-family="sans-serif" font-size="13" lengthAdjust="spacing" textLength="79.9043" x="389.9" y="179.5469">Attended by</text><text fill="#000000" font-family="sans-serif" font-size="13" lengthAdjust="spacing" textLength="23.0356" x="352.2541" y="202.2836">0..*</text><text fill="#000000" font-family="sans-serif" font-size="13" lengthAdjust="spacing" textLength="23.0356" x="374.0498" y="156.7547">0..*</text></g><!--link Student to Exam--><g id="link_Student_Exam"><path codeLine="47" d="M477.03,136.92 C502.3,173.3 526.9,221.05 526.9,269.07 C526.9,269.07 526.9,269.07 526.9,618.85 C526.9,658.49 517.23,702.41 508.21,734.78 " fill="#FFFFFF" fill-opacity="0.00000" id="Student-Exam" style="stroke:#181818;stroke-width:1;"/><text fill="#000000" font-family="sans-serif" font-size="13" lengthAdjust="spacing" textLength="38.2065" x="527.9" y="456.6769">Takes</text><text fill="#000000" font-family="sans-serif" font-size="13" lengthAdjust="spacing" textLength="8.271" x="474.2141" y="156.4886">1</text><text fill="#000000" font-family="sans-serif" font-size="13" lengthAdjust="spacing" textLength="23.0356" x="485.7485" y="723.9369">0..*</text></g><!--link Student to Grade--><g id="link_Student_Grade"><path codeLine="48" d="M497.65,109.42 C553.38,142.6 619.9,197.25 619.9,269.07 C619.9,269.07 619.9,269.07 619.9,784.6 C619.9,827.98 603.4,874.11 587.29,908.81 " fill="#FFFFFF" fill-opacity="0.00000" id="Student-Grade" style="stroke:#181818;stroke-width:1;"/><text fill="#000000" font-family="sans-serif" font-size="13" lengthAdjust="spacing" textLength="58.2524" x="620.9" y="543.6269">Receives</text><text fill="#000000" font-family="sans-serif" font-size="13" lengthAdjust="spacing" textLength="8.271" x="505.1692" y="109.3695">1</text><text fill="#000000" font-family="sans-serif" font-size="13" lengthAdjust="spacing" textLength="23.0356" x="566.595" y="898.0455">0..*</text></g><!--link Professor to Module--><g id="link_Professor_Module"><path codeLine="50" d="M188.9,500.91 C188.9,525.17 188.9,554.29 188.9,577.28 " fill="#FFFFFF" fill-opacity="0.00000" id="Professor-Module" style="stroke:#181818;stroke-width:1;"/><text fill="#000000" font-family="sans-serif" font-size="13" lengthAdjust="spacing" textLength="54.063" x="189.9" y="543.6269">Teaches</text><text fill="#000000" font-family="sans-serif" font-size="13" lengthAdjust="spacing" textLength="8.271" x="180.3813" y="520.5504">1</text><text fill="#000000" font-family="sans-serif" font-size="13" lengthAdjust="spacing" textLength="23.0356" x="163.9985" y="566.3952">0..*</text></g><!--link Professor to Session--><g id="link_Professor_Session"><path codeLine="51" d="M232.92,403.36 C254.54,379.91 280.73,351.52 303.28,327.05 " fill="#FFFFFF" fill-opacity="0.00000" id="Professor-Session" style="stroke:#181818;stroke-width:1;"/><text fill="#000000" font-family="sans-serif" font-size="13" lengthAdjust="spacing" textLength="60.7788" x="272.9" y="369.7369">Conducts</text><text fill="#000000" font-family="sans-serif" font-size="13" lengthAdjust="spacing" textLength="8.271" x="230.5675" y="392.5253">1</text><text fill="#000000" font-family="sans-serif" font-size="13" lengthAdjust="spacing" textLength="23.0356" x="272.9841" y="346.5796">0..*</text></g><!--link Session to Professor--><g id="link_Session_Professor"><path codeLine="56" d="M281.37,283.55 C238.97,294.93 189.03,316.41 162.9,356.67 C153.82,370.65 155.51,387.76 161.04,403.57 " fill="#FFFFFF" fill-opacity="0.00000" id="Session-Professor" style="stroke:#181818;stroke-width:1;"/><text fill="#000000" font-family="sans-serif" font-size="13" lengthAdjust="spacing" textLength="90.3335" x="163.9" y="369.7369">Conducted by</text><text fill="#000000" font-family="sans-serif" font-size="13" lengthAdjust="spacing" textLength="23.0356" x="250.2675" y="281.1928">0..*</text><text fill="#000000" font-family="sans-serif" font-size="13" lengthAdjust="spacing" textLength="8.271" x="148.5794" y="392.7649">1</text></g><!--link Module to Exam--><g id="link_Module_Exam"><path codeLine="53" d="M262.49,658.49 C309.84,684 371.18,717.04 418.67,742.61 " fill="#FFFFFF" fill-opacity="0.00000" id="Module-Exam" style="stroke:#181818;stroke-width:1;"/><text fill="#000000" font-family="sans-serif" font-size="13" lengthAdjust="spacing" textLength="24.5146" x="341.9" y="701.2169">Has</text><text fill="#000000" font-family="sans-serif" font-size="13" lengthAdjust="spacing" textLength="8.271" x="265.6027" y="678.2387">1</text><text fill="#000000" font-family="sans-serif" font-size="13" lengthAdjust="spacing" textLength="23.0356" x="388.0364" y="735.3646">0..*</text></g><!--link Session to Room--><g id="link_Session_Room"><path codeLine="55" d="M364.22,327.05 C368.78,354.41 374.16,386.68 378.29,411.45 " fill="#FFFFFF" fill-opacity="0.00000" id="Session-Room" style="stroke:#181818;stroke-width:1;"/><text fill="#000000" font-family="sans-serif" font-size="13" lengthAdjust="spacing" textLength="45.6206" x="371.9" y="369.7369">Held in</text><text fill="#000000" font-family="sans-serif" font-size="13" lengthAdjust="spacing" textLength="23.0356" x="340.9703" y="346.5796">0..*</text><text fill="#000000" font-family="sans-serif" font-size="13" lengthAdjust="spacing" textLength="8.271" x="368.6209" y="400.8509">1</text></g><!--link Room to Session--><g id="link_Room_Session"><path codeLine="61" d="M416.47,411.58 C426.06,394.84 432.51,375 425.9,356.67 C422.16,346.32 416.57,336.33 410.13,327.06 " fill="#FFFFFF" fill-opacity="0.00000" id="Room-Session" style="stroke:#181818;stroke-width:1;"/><text fill="#000000" font-family="sans-serif" font-size="13" lengthAdjust="spacing" textLength="36.3721" x="428.9" y="369.7369">Hosts</text><text fill="#000000" font-family="sans-serif" font-size="13" lengthAdjust="spacing" textLength="8.271" x="413.059" y="400.7018">1</text><text fill="#000000" font-family="sans-serif" font-size="13" lengthAdjust="spacing" textLength="23.0356" x="392.1886" y="346.5908">0..*</text></g><!--link Exam to Grade--><g id="link_Exam_Grade"><path codeLine="59" d="M509.88,832.37 C518.21,855.81 528.3,884.19 536.99,908.65 " fill="#FFFFFF" fill-opacity="0.00000" id="Exam-Grade" style="stroke:#181818;stroke-width:1;"/><text fill="#000000" font-family="sans-serif" font-size="13" lengthAdjust="spacing" textLength="63.5083" x="525.9" y="875.1069">Results in</text><text fill="#000000" font-family="sans-serif" font-size="13" lengthAdjust="spacing" textLength="8.271" x="503.6426" y="852.0077">1</text><text fill="#000000" font-family="sans-serif" font-size="13" lengthAdjust="spacing" textLength="23.0356" x="510.1647" y="897.866">0..*</text></g><!--SRC=[bL91JiCm4Bpx5LQFe5PmpGsXYbwGKDixSkrjQ-7OoDuW4EBlREpOIMW28eSekvcTcHrR6X42ts6Zm2B_P9oUwv3APwqg7j1hUqfzAseOTw0MsenR1-tnN74b4593IDHlD7Tmpe2mx8in6LMVl3j22CvdtTVS-BTouNnqgZ6G2UjO_SvMHdSahPqj8QJoOhXTRBWUwfQiVQVQErSFXmh_-btKcHpe-q_cI_U5wy4BLROyjSK5szmXJae7wJnf7uqJsAjiQPKiydEjoI3pFLhShbPN2xvSyiLD_EgEfU9hwvqneBYsy-Xy4XM_GmIhmW0wnCL4AxuNBp07IK5LV0iIw1O6nlfRDqOMYtiGyap8EM3lxjvPrKWaqcvuqjv6420FTRzQ465Zm8G0amAP1FK-YYBbT_YOWdSEkoXoVWdEef-vU49ZCBGcM3Grj_B61GpV]--></g></svg>